Coordinates
version=1
nRows=7
nColumns=63
inDegrees=yes

Units are S.I. units (second, meters, Newtons, ...)
If the header above contains a line with 'inDegrees', this indicates whether rotational values are in degrees (yes) or radians (no).

endheader
time	pelvis_tilt	pelvis_list	pelvis_rotation	pelvis_tx	pelvis_ty	pelvis_tz	hip_flexion_r	hip_adduction_r	hip_rotation_r	knee_angle_r	knee_angle_r_beta	ankle_angle_r	subtalar_angle_r	mtp_angle_r	hip_flexion_l	hip_adduction_l	hip_rotation_l	knee_angle_l	knee_angle_l_beta	ankle_angle_l	subtalar_angle_l	mtp_angle_l	L5_S1_Flex_Ext	L5_S1_Lat_Bending	L5_S1_axial_rotation	L4_L5_Flex_Ext	L4_L5_Lat_Bending	L4_L5_axial_rotation	L3_L4_Flex_Ext	L3_L4_Lat_Bending	L3_L4_axial_rotation	L2_L3_Flex_Ext	L2_L3_Lat_Bending	L2_L3_axial_rotation	L1_L2_Flex_Ext	L1_L2_Lat_Bending	L1_L2_axial_rotation	L1_T12_Flex_Ext	L1_T12_Lat_Bending	L1_T12_axial_rotation	Abs_r3	Abs_r2	Abs_r1	Abs_t1	Abs_t2	neck_flexion	neck_bending	neck_rotation	arm_flex_r	arm_add_r	arm_rot_r	elbow_flex_r	pro_sup_r	wrist_flex_r	wrist_dev_r	arm_flex_l	arm_add_l	arm_rot_l	elbow_flex_l	pro_sup_l	wrist_flex_l	wrist_dev_l
      2.51063830	     -5.10016670	      8.21057390	     95.12916610	      0.21954193	      0.96809336	      0.67289330	    -14.45759822	      1.05199470	    -12.41320324	      5.11835463	      0.08933214	     24.87315452	      8.35812529	      0.00000000	    -10.69771120	     -3.04748051	     -5.37062444	      9.86694837	      0.17221074	     27.94686373	     17.20009729	      0.00000000	     -1.57419843	      1.04851780	      9.18526101	     -2.92344390	      1.39452867	      9.75933982	     -2.58625059	      2.54936618	      9.75933982	     -1.79915138	      2.54936618	      8.03710338	     -1.46180066	      2.13813750	      7.46302457	     -0.89949698	      1.62415407	      6.88894576	    -11.24434193	     11.86104306	     51.08566616	      0.00000000	      0.00000000	     -8.27273409	    -12.65621359	    -43.55909379	    -25.96634322	      7.05827089	   -113.46494510	    126.26681608	      6.47613728	     21.00643415	     33.97446596	     65.65672481	     21.46762252	    143.94451693	      0.05605575	      0.72808596	    -69.89406346	    -24.58369992
      2.53191489	     -5.12945218	      8.20834279	     94.85359437	      0.21994384	      0.96798752	      0.67275744	    -14.46489283	      1.03320257	    -10.71449311	      5.05119769	      0.08816003	     24.60286422	      6.31933847	      0.00000000	    -10.76257773	     -2.96920970	     -5.65621793	      9.80149449	      0.17106835	     27.93459625	     17.23867507	      0.00000000	     -1.57713999	      1.03394379	      9.22517663	     -2.92890668	      1.37514524	      9.80175016	     -2.59108329	      2.51393094	      9.80175016	     -1.80251330	      2.51393094	      8.07202955	     -1.46453220	      2.10841818	      7.49545601	     -0.90117779	      1.60157893	      6.91888247	    -11.26535324	     11.69617896	     51.30766484	      0.00000000	      0.00000000	     -8.22787317	    -12.44678006	    -43.56536548	    -25.86223559	      7.09105038	   -113.31672273	    126.31348686	      5.94819322	     21.31624033	     33.97986811	     65.71564293	     21.46129250	    144.74976503	      0.05552899	      0.73275109	    -69.89372146	    -24.58421492
      2.55319149	     -5.19208771	      8.17995932	     94.80175624	      0.22011892	      0.96789279	      0.67270369	    -14.42670731	      0.95890166	    -10.79326790	      5.08266595	      0.08870926	     24.64911756	      6.39183109	      0.00000000	    -10.72035392	     -2.90862865	     -5.78279224	      9.84864450	      0.17189127	     27.94698480	     17.30551083	      0.00000000	     -1.57651336	      1.01757059	      9.24103230	     -2.92774296	      1.35336888	      9.81859682	     -2.59005379	      2.47412113	      9.81859682	     -1.80179712	      2.47412113	      8.08590326	     -1.46395030	      2.07502995	      7.50833874	     -0.90081973	      1.57621684	      6.93077422	    -11.26087726	     11.51096202	     51.39584933	      0.00000000	      0.00000000	     -8.17181004	    -12.21467660	    -43.59342120	    -25.86050745	      7.23488995	   -113.56792899	    126.36288676	      6.75752984	     22.28865422	     33.95890689	     65.78459359	     21.47195965	    145.43918182	      0.05496849	      0.73034818	    -69.89366024	    -24.58373447
      2.57446809	     -5.20042096	      8.20945341	     94.78562108	      0.22025733	      0.96789705	      0.67287848	    -14.42904038	      0.96207523	    -10.79778130	      5.09935874	      0.08900060	     24.66740135	      6.38636572	      0.00000000	    -10.73267362	     -2.91074384	     -5.78669886	      9.87842449	      0.17241103	     27.93411609	     17.30021480	      0.00000000	     -1.58150027	      1.01532380	      9.24008264	     -2.93700415	      1.35038066	      9.81758781	     -2.59824680	      2.46865829	      9.81758781	     -1.80749666	      2.46865829	      8.08507231	     -1.46858115	      2.07044830	      7.50756715	     -0.90366926	      1.57273657	      6.93006198	    -11.29649829	     11.48554591	     51.39056764	      0.00000000	      0.00000000	     -8.19914070	    -12.11254675	    -43.61357804	    -25.98458044	      7.37241630	   -113.75211823	    126.71426404	      6.82667888	     22.43293600	     33.95667270	     65.83915213	     21.45321071	    145.48660532	      0.05459714	      0.74187474	    -69.89392311	    -24.58980636
      2.59574468	     -5.26228147	      8.10708338	     94.78363748	      0.22064879	      0.96763020	      0.67251894	    -14.32520548	      0.93233493	    -10.70385059	      5.07667124	      0.08860463	     24.81994619	      6.26092906	      0.00000000	    -10.64025252	     -2.87407337	     -5.75371511	      9.95066246	      0.17367182	     27.96933147	     17.32200001	      0.00000000	     -1.56597485	      0.99284973	      9.30032759	     -2.90817189	      1.32049014	      9.88159806	     -2.57274007	      2.41401484	      9.88159806	     -1.78975265	      2.41401484	      8.13778664	     -1.45416424	      2.02461917	      7.55651617	     -0.89479803	      1.53792424	      6.97524569	    -11.18560172	     11.23131474	     51.72563196	      0.00000000	      0.00000000	     -8.05515485	    -11.66089125	    -43.70061436	    -25.75183591	      7.68639554	   -116.00649850	    126.91368563	     16.40094241	     24.72711968	     33.72859277	     65.90894318	     21.57160028	    146.05919851	      0.05418918	      0.72630067	    -69.89437647	    -24.58751000
      2.61702128	     -5.25158506	      8.11128386	     94.77890615	      0.22092824	      0.96753548	      0.67252009	    -14.29417527	      0.97805076	    -10.66921771	      5.04503095	      0.08805240	     24.93872515	      6.27046808	      0.00000000	    -10.66198843	     -2.90926660	     -5.69510890	      9.97183485	      0.17404135	     27.96960199	     17.35623705	      0.00000000	     -1.56452819	      0.98999426	      9.30009642	     -2.90548530	      1.31669236	      9.88135245	     -2.57036336	      2.40707204	      9.88135245	     -1.78809927	      2.40707204	      8.13758437	     -1.45282088	      2.01879629	      7.55632834	     -0.89397141	      1.53350111	      6.97507232	    -11.17526841	     11.19901305	     51.72434628	      0.00000000	      0.00000000	     -8.07879265	    -11.55178733	    -43.71311437	    -25.93465352	      7.70024942	   -116.29251911	    127.31039759	     16.55001627	     24.83624189	     33.68625828	     65.96863828	     21.48079876	    145.99283423	      0.05401717	      0.71215230	    -69.89522328	    -24.58435338
      2.63829787	     -5.12498492	      8.08923595	     94.85285224	      0.22089232	      0.96739340	      0.67241876	    -14.24953633	      1.15824606	    -10.64850607	      4.96985708	      0.08674037	     25.06329937	      6.26037573	      0.00000000	    -10.63051225	     -3.06484585	     -5.46061377	     10.03454261	      0.17513581	     28.08497912	     17.31913560	      0.00000000	     -1.54770985	      1.00403422	      9.30370341	     -2.87425197	      1.33536551	      9.88518487	     -2.54273252	      2.44120880	      9.88518487	     -1.76887759	      2.44120880	      8.14074048	     -1.43720337	      2.04742658	      7.55925902	     -0.88436141	      1.55524900	      6.97777756	    -11.05513670	     11.35783589	     51.74440726	      0.00000000	      0.00000000	     -8.08583484	    -11.63286874	    -43.70919877	    -24.77112745	      7.28961077	   -121.06714557	    130.09585034	     47.18132523	     23.27296742	     32.57211724	     65.92911441	     21.58713468	    145.19811328	      0.05419560	      0.71347922	    -69.89571054	    -24.58907615
